<?xml version="1.0" encoding="UTF-8" ?>
<svg xmlns="http://www.w3.org/2000/svg" viewBox="0 0 512 512">
  <title>Nocturne Logo</title>
  <defs>
    <clipPath id="clipper">
      <path d="M0,0 L512,0 512,512 0,512z M256,100 A100,100,0,1,0,256,300 A100,100,0,1,0,256,100"/>
    </clipPath>
  </defs>
  <path fill="#111" d="M71,460 L30,0 481,0 440,460 255,512"/>
  <path fill="#445" d="M256,472 L405,431 440,37 256,37"/>
  <path fill="#ffb" d="M256,120 A130,130,0,1,0,256,380" clip-path="url(#clipper)"/>
  <path fill="#ffc" d="M256,120 A130,130,0,1,1,256,380" clip-path="url(#clipper)"/>
</svg>
